<svg version="1.1" xmlns="http://www.w3.org/2000/svg" xmlns:xlink="http://www.w3.org/1999/xlink" width="69.5" height="64" viewBox="0,0,69.5,64"><g transform="translate(-200.75,-148.75)"><g stroke="none" stroke-miterlimit="10"><path d="M200.75,212.75v-64h69.5v64z" fill="#ffffff" stroke-width="0"/><path d="M254.75,172.25c2.5,0 2.5,2.5 2.5,2.5l-0.03402,1.411c-0.22252,1.19083 -0.44504,2.38167 -0.66756,3.5725c-4.58107,6.4086 -9.63991,16.44705 -18.42668,17.98871c-1.18526,0.20796 -2.37787,-0.39179 -3.57794,-0.48073c-3.08123,-0.22835 -5.8257,0.20723 -8.89643,-0.5652c-6.87191,-1.72862 -13.74535,-6.76533 -18.66514,-11.65851c0,0 -1.76777,-1.76777 0,-3.53553c1.76777,-1.76777 3.53553,0 3.53553,0c4.23157,4.25741 10.37556,8.86389 16.33486,10.34149c2.76584,0.68578 5.31111,0.17293 8.10357,0.4348c0.82209,0.07709 1.60579,0.64374 2.42206,0.51927c2.27277,-0.34657 4.62586,-2.98835 6.20444,-4.39061c3.5469,-3.15075 5.41906,-6.94895 8.36888,-10.62068c0.11081,-0.80917 0.22162,-1.61833 0.33244,-2.4275l-0.03402,-0.589c0,0 0,-2.5 2.5,-2.5z" fill="#ff0000" stroke-width="0.5"/><path d="M219.25,177.75c0,-1.38071 1.11929,-2.5 2.5,-2.5c1.38071,0 2.5,1.11929 2.5,2.5c0,1.38071 -1.11929,2.5 -2.5,2.5c-1.38071,0 -2.5,-1.11929 -2.5,-2.5z" fill="#ff0000" stroke-width="0.5"/><path d="M229.25,166.75c0,-1.38071 1.11929,-2.5 2.5,-2.5c1.38071,0 2.5,1.11929 2.5,2.5c0,1.38071 -1.11929,2.5 -2.5,2.5c-1.38071,0 -2.5,-1.11929 -2.5,-2.5z" fill="#ff0000" stroke-width="0.5"/></g></g></svg>