<svg version="1.1" xmlns="http://www.w3.org/2000/svg" xmlns:xlink="http://www.w3.org/1999/xlink" width="73.48167" height="73.48167" viewBox="0,0,73.48167,73.48167"><g transform="translate(-203.25916,-143.25916)"><g fill="#ffffff" stroke="none" stroke-width="0" stroke-miterlimit="10"><path d="M213.22723,194.03555c3.51729,-3.51729 9.21993,-3.51729 12.73722,0c3.51729,3.51729 3.51729,9.21993 0,12.73722c-3.51729,3.51729 -9.21993,3.51729 -12.73722,0c-3.51729,-3.51729 -3.51729,-9.21993 0,-12.73722z"/><path d="M233.63139,201.36566c3.51728,-3.51728 9.21993,-3.51728 12.73722,0c3.51728,3.51728 3.51728,9.21993 0,12.73722c-3.51728,3.51728 -9.21993,3.51728 -12.73722,0c-3.51728,-3.51728 -3.51728,-9.21993 0,-12.73722z"/><path d="M205.89713,173.63139c3.51728,-3.51728 9.21993,-3.51728 12.73722,0c3.51728,3.51728 3.51728,9.21993 0,12.73722c-3.51728,3.51728 -9.21993,3.51728 -12.73722,0c-3.51728,-3.51728 -3.51728,-9.21993 0,-12.73722z"/><path d="M254.03555,153.22723c3.51728,-3.51728 9.21993,-3.51728 12.73722,0c3.51728,3.51728 3.51728,9.21993 0,12.73722c-3.51728,3.51728 -9.21993,3.51728 -12.73722,0c-3.51728,-3.51728 -3.51728,-9.21993 0,-12.73722z"/><path d="M261.36566,173.63139c3.51728,-3.51728 9.21993,-3.51728 12.73722,0c3.51728,3.51728 3.51728,9.21993 0,12.73722c-3.51728,3.51728 -9.21993,3.51728 -12.73722,0c-3.51728,-3.51728 -3.51728,-9.21993 0,-12.73722z"/><path d="M233.63139,145.89713c3.51728,-3.51728 9.21993,-3.51728 12.73722,0c3.51728,3.51728 3.51728,9.21993 0,12.73722c-3.51728,3.51728 -9.21993,3.51728 -12.73722,0c-3.51728,-3.51728 -3.51728,-9.21993 0,-12.73722z"/><path d="M213.22723,153.22723c3.51728,-3.51728 9.21993,-3.51728 12.73722,0c3.51728,3.51728 3.51728,9.21993 0,12.73722c-3.51728,3.51728 -9.21993,3.51728 -12.73722,0c-3.51728,-3.51728 -3.51728,-9.21993 0,-12.73722z"/></g></g></svg>